<?xml version="1.0"?>
<svg xmlns="http://www.w3.org/2000/svg" viewBox="0 0 80 80">
    <path style="line-height:normal;text-indent:0;text-align:start;text-decoration-line:none;text-decoration-style:solid;text-decoration-color:#000;text-transform:none;block-progression:tb;isolation:auto;mix-blend-mode:normal" d="M 24 10 C 16.27961 10 10 16.27961 10 24 C 10 31.72039 16.27961 38 24 38 C 24.772232 38 25.526027 37.929844 26.261719 37.806641 L 10.429688 65.226562 C 9.2288418 67.306597 10.783721 70 13.185547 70 L 67.814453 70 C 70.215601 70 71.770756 67.306468 70.570312 65.226562 L 70.570312 65.224609 L 42.986328 17.451172 C 42.445873 16.514383 41.473365 16.044922 40.5 16.044922 C 39.526635 16.044922 38.554127 16.514383 38.013672 17.451172 L 37.089844 19.050781 C 35.088725 13.762819 29.978895 10 24 10 z M 24 12 C 29.758614 12 34.534701 16.049445 35.707031 21.445312 L 27.642578 35.412109 C 26.487815 35.78318 25.271 36 24 36 C 17.36039 36 12 30.63961 12 24 C 12 17.36039 17.36039 12 24 12 z M 24 14 A 1 1 0 0 0 23 15 A 1 1 0 0 0 24 16 A 1 1 0 0 0 25 15 A 1 1 0 0 0 24 14 z M 19.476562 15.205078 A 1 1 0 0 0 19 15.339844 A 1 1 0 0 0 18.632812 16.705078 A 1 1 0 0 0 20 17.072266 A 1 1 0 0 0 20.365234 15.705078 A 1 1 0 0 0 19.476562 15.205078 z M 28.453125 15.207031 A 1 1 0 0 0 27.634766 15.705078 A 1 1 0 0 0 28 17.072266 A 1 1 0 0 0 29.365234 16.705078 A 1 1 0 0 0 29 15.339844 A 1 1 0 0 0 28.453125 15.207031 z M 40.5 17.982422 C 40.787635 17.982422 41.074362 18.138008 41.253906 18.449219 L 41.255859 18.449219 L 68.837891 66.226562 C 69.317505 67.056417 68.772628 68 67.814453 68 L 13.185547 68 C 12.227372 68 11.682954 67.056528 12.162109 66.226562 L 39.744141 18.449219 L 39.746094 18.449219 C 39.925591 18.138008 40.212365 17.982422 40.5 17.982422 z M 23 18 L 23 23.666016 L 20.199219 27.400391 L 21.800781 28.599609 L 25 24.333984 L 25 18 L 23 18 z M 31.769531 18.5 A 1 1 0 0 0 31.292969 18.632812 A 1 1 0 0 0 30.927734 20 A 1 1 0 0 0 32.292969 20.365234 A 1 1 0 0 0 32.660156 19 A 1 1 0 0 0 31.769531 18.5 z M 16.158203 18.501953 A 1 1 0 0 0 15.339844 19 A 1 1 0 0 0 15.705078 20.365234 A 1 1 0 0 0 17.072266 20 A 1 1 0 0 0 16.705078 18.634766 A 1 1 0 0 0 16.158203 18.501953 z M 15 23 A 1 1 0 0 0 14 24 A 1 1 0 0 0 15 25 A 1 1 0 0 0 16 24 A 1 1 0 0 0 15 23 z M 33 23 A 1 1 0 0 0 32 24 A 1 1 0 0 0 33 25 A 1 1 0 0 0 34 24 A 1 1 0 0 0 33 23 z M 16.181641 27.5 A 1 1 0 0 0 15.705078 27.632812 A 1 1 0 0 0 15.339844 28.998047 A 1 1 0 0 0 16.705078 29.365234 A 1 1 0 0 0 17.072266 27.998047 A 1 1 0 0 0 16.181641 27.5 z M 28.476562 30.792969 A 1 1 0 0 0 28 30.927734 A 1 1 0 0 0 27.632812 32.292969 A 1 1 0 0 0 29 32.658203 A 1 1 0 0 0 29.365234 31.292969 A 1 1 0 0 0 28.476562 30.792969 z M 19.451172 30.794922 A 1 1 0 0 0 18.632812 31.294922 A 1 1 0 0 0 19 32.660156 A 1 1 0 0 0 20.365234 32.294922 A 1 1 0 0 0 20 30.927734 A 1 1 0 0 0 19.451172 30.794922 z M 24 32 A 1 1 0 0 0 23 33 A 1 1 0 0 0 24 34 A 1 1 0 0 0 25 33 A 1 1 0 0 0 24 32 z M 38 34.832031 L 38.667969 52.167969 L 41.332031 52.167969 L 42 34.832031 L 38 34.832031 z M 40 55 A 2 2 0 0 0 38 57 A 2 2 0 0 0 40 59 A 2 2 0 0 0 42 57 A 2 2 0 0 0 40 55 z M 18 63 A 1 1 0 0 0 17 64 A 1 1 0 0 0 18 65 A 1 1 0 0 0 19 64 A 1 1 0 0 0 18 63 z M 22 63 A 1 1 0 0 0 21 64 A 1 1 0 0 0 22 65 A 1 1 0 0 0 23 64 A 1 1 0 0 0 22 63 z M 26 63 A 1 1 0 0 0 25 64 A 1 1 0 0 0 26 65 A 1 1 0 0 0 27 64 A 1 1 0 0 0 26 63 z M 30 63 A 1 1 0 0 0 29 64 A 1 1 0 0 0 30 65 A 1 1 0 0 0 31 64 A 1 1 0 0 0 30 63 z M 34 63 A 1 1 0 0 0 33 64 A 1 1 0 0 0 34 65 A 1 1 0 0 0 35 64 A 1 1 0 0 0 34 63 z M 38 63 A 1 1 0 0 0 37 64 A 1 1 0 0 0 38 65 A 1 1 0 0 0 39 64 A 1 1 0 0 0 38 63 z M 42 63 A 1 1 0 0 0 41 64 A 1 1 0 0 0 42 65 A 1 1 0 0 0 43 64 A 1 1 0 0 0 42 63 z M 46 63 A 1 1 0 0 0 45 64 A 1 1 0 0 0 46 65 A 1 1 0 0 0 47 64 A 1 1 0 0 0 46 63 z M 50 63 A 1 1 0 0 0 49 64 A 1 1 0 0 0 50 65 A 1 1 0 0 0 51 64 A 1 1 0 0 0 50 63 z M 54 63 A 1 1 0 0 0 53 64 A 1 1 0 0 0 54 65 A 1 1 0 0 0 55 64 A 1 1 0 0 0 54 63 z M 58 63 A 1 1 0 0 0 57 64 A 1 1 0 0 0 58 65 A 1 1 0 0 0 59 64 A 1 1 0 0 0 58 63 z M 62 63 A 1 1 0 0 0 61 64 A 1 1 0 0 0 62 65 A 1 1 0 0 0 63 64 A 1 1 0 0 0 62 63 z"/>
</svg>
