<svg xmlns="http://www.w3.org/2000/svg" width="182" height="182" viewBox="0 0 182 182">
    <g fill="none" fill-rule="evenodd">
        <path fill="#FFF" stroke="#979797" stroke-width=".5" d="M1 1h180v180H1z"/>
        <path fill="#00BDB6" d="M43.451 56.108c1.595-2.278 5.196-1.125 5.196 1.652v31.723c0 23.597 19.188 42.728 42.856 42.728 23.669 0 42.855-19.13 42.855-42.728V57.764c0-2.788 3.611-3.922 5.211-1.635a57.969 57.969 0 0 1 10.503 33.354c0 33.657-28.56 60.663-62.836 58.243-28.912-2.042-52.241-25.414-54.168-54.248-.932-13.934 3.05-26.903 10.383-37.37zm48.052-25.019c8.32 0 16.23 1.738 23.396 4.858 3.137 1.366 5.174 4.447 5.174 7.86v45.676c0 16.071-13.42 29.077-29.672 28.465-15.46-.584-27.469-13.738-27.469-29.164V43.806c0-3.412 2.037-6.493 5.174-7.859a58.454 58.454 0 0 1 23.397-4.858z"/>
    </g>
</svg>
